<?xml version="1.0" standalone="no"?>
<!DOCTYPE svg PUBLIC "-//W3C//DTD SVG 1.1//EN" "http://www.w3.org/Graphics/SVG/1.1/DTD/svg11.dtd" >
<svg xmlns="http://www.w3.org/2000/svg" xmlns:xlink="http://www.w3.org/1999/xlink" version="1.1">
<metadata></metadata>
<defs>
<font id="nhl_phoenixregular" horiz-adv-x="1640" >
<font-face units-per-em="2048" ascent="1638" descent="-410" />
<missing-glyph horiz-adv-x="1024" />
<glyph horiz-adv-x="0" />
<glyph unicode="&#xd;" horiz-adv-x="1024" />
<glyph unicode=" "  horiz-adv-x="1024" />
<glyph unicode="&#x09;" horiz-adv-x="1024" />
<glyph unicode="&#xa0;" horiz-adv-x="1024" />
<glyph unicode="0" horiz-adv-x="1062" d="M0 825q0 -438 70 -602q96 -223 389 -223t391 223q70 160 70 602q0 475 -84 637q-94 176 -377 176q-285 0 -377 -176q-82 -158 -82 -637zM319 821q0 393 19 475q16 111 121 111q98 0 121 -111q18 -88 18 -475q0 -389 -20 -477q-25 -113 -119 -113t-117 113 q-23 102 -23 477z" />
<glyph unicode="1" horiz-adv-x="784" d="M0 1077v309q205 115 315 252h310v-1638h-351v1262q-123 -104 -274 -185z" />
<glyph unicode="2" horiz-adv-x="1079" d="M0 0v285l496 659q114 154 114 301q0 156 -121 156q-86 0 -118 -78q-23 -51 -23 -154h-321q-2 29 -2 58q0 201 122 309q117 102 320 102q469 0 469 -417q0 -279 -234 -549l-360 -422h608v-250h-950z" />
<glyph unicode="3" horiz-adv-x="1073" d="M0 455h322q0 -111 16 -152q27 -72 119 -70q158 2 157 248q0 162 -67 207q-57 39 -234 37v258q162 -10 213 29q59 45 60 202q0 190 -121 191q-80 0 -107 -57q-20 -39 -18 -127h-322q-2 236 111 335q92 82 344 82q227 0 331.5 -98.5t104.5 -327.5q0 -322 -215 -354v-2 q141 -29 199 -141q43 -86 43 -248q0 -467 -498 -467q-244 0 -341 104.5t-97 350.5z" />
<glyph unicode="4" horiz-adv-x="1085" d="M0 375h502v-375h321v375h129v252h-129v1011h-432l-391 -933v-330zM252 627l295 784h4l-21 -784h-278z" />
<glyph unicode="5" horiz-adv-x="1011" d="M0 401h326q0 -78 22 -114q31 -51 98 -51q92 0 121 77q23 55 23 244q0 150 -12 201q-29 123 -125 123q-119 0 -119 -183h-316v940h838v-249h-518l2 -408q74 109 233 109q211 0 287 -175q53 -115 53 -358q0 -289 -100 -416q-111 -141 -387 -141q-438 0 -426 401z" />
<glyph unicode="6" horiz-adv-x="1048" d="M0 684q0 -317 66 -463q100 -221 378 -221q477 0 478 545q0 510 -353 510q-78 0 -139 -29q-45 -20 -117 -82q0 315 21 389q25 86 125 86q121 0 112 -145h332q2 364 -418 364q-315 0 -411 -235q-74 -180 -74 -719zM322 516q0 176 20 236q27 82 113 82q100 0 129 -105 q14 -51 14 -186q0 -143 -14 -197q-29 -113 -133 -115q-66 0 -97.5 71t-31.5 214z" />
<glyph unicode="7" horiz-adv-x="1003" d="M0 1386v252h874v-311l-393 -1327h-368l448 1386h-561z" />
<glyph unicode="8" horiz-adv-x="1060" d="M0 432q0 -432 461 -432t461 432q0 170 -41 260q-53 121 -193 172v6q219 55 219 344q0 424 -446 424q-444 0 -445 -424q0 -145 39 -219q51 -94 181 -125v-6q-139 -49 -195 -172q-41 -92 -41 -260zM324 449q0 127 14 182q33 104 123 104q92 0 123 -104q16 -59 16 -182 q0 -217 -139 -218q-137 0 -137 218zM336 1200q0 207 125 207t125 -207q0 -217 -125 -217t-125 217z" />
<glyph unicode="9" horiz-adv-x="1058" d="M0 1071q0 -178 78 -295q90 -135 260 -135q156 0 262 104l-10 -399q-25 -113 -131 -113q-61 0 -94 52q-25 39 -25 112h-315q-6 -215 104 -311q102 -86 322 -86q309 0 411 258q59 152 60 555q0 440 -58 582q-94 244 -411 243q-453 0 -453 -567zM322 1137q0 123 16 178 q29 104 121 104q141 0 141 -276q0 -285 -143 -285q-90 0 -119 100q-16 54 -16 179z" />
<glyph unicode="A" horiz-adv-x="1521" d="M0 0h414l-54 78l-16 80l4 37l82 288h426l80 -272v-45l-12 -72l-60 -94h547v82l-29 47l-63 164l-401 1345h-500l57 -86l12 -71l-24 -111l-4 -24l-385 -1225zM500 715l145 506l146 -506h-291z" />
<glyph unicode="B" horiz-adv-x="1208" d="M0 0h575q160 0 252 37q203 82 260 319q16 68 17 144q0 326 -289 424q104 59 159.5 141t55.5 188q0 186 -139 285.5t-395 99.5h-496v-41l33 -61q16 -47 16 -186v-1061q0 -129 -16 -185l-21 -43l-12 21v-82zM451 248v530l24 4l55 9q109 0 166 -95q49 -78 49 -192 q0 -111 -59 -193q-54 -71 -148 -71h-3h-35zM451 1014v368l36 13h23q61 0 102 -52.5t41 -134.5q0 -88 -41 -145q-43 -49 -104 -49h-57z" />
<glyph unicode="C" horiz-adv-x="1310" d="M0 823q0 356 216 586.5t491 230.5q25 0 51 -2l143 -12l158 -39l26 -311l-174 80l-149 30q-190 0 -285 -167q-76 -135 -76 -342q0 -416 228 -562q92 -59 221 -59l197 31q98 35 221 104l-90 -317l-205 -56l-189 -18q-356 6 -567 227q-217 229 -217 596z" />
<glyph unicode="D" horiz-adv-x="1505" d="M0 0h625q193 0 307 41q137 47 207 129q119 113 184 285q59 162 59 360q0 387 -215 605t-596 218h-571q47 -47 64.5 -100t17.5 -188v-1061q0 -135 -16 -185zM475 264v1086l68 12h65q197 0 293 -193q72 -147 72 -366q0 -262 -96 -410q-99 -150 -248 -150q-10 0 -21 1l-69 4 z" />
<glyph unicode="E" horiz-adv-x="1067" d="M0 0l66 104q20 61 20 185v1061q0 141 -25 202q-20 49 -61 86h827v-335l-90 67l-112 25h-138v-410h267v-315q-16 41 -61.5 62.5t-88.5 21.5h-117v-494l80 -16l70 -4l199 28q68 8 157 92l-78 -360h-915z" />
<glyph unicode="F" horiz-adv-x="948" d="M0 0q45 57 61 104q20 61 21 185v1061q0 207 -82 288h831v-335l-90 67l-112 25h-146v-439h234v-315q-14 37 -64 66l-86 18h-84v-436q0 -113 9 -156q16 -70 71 -133h-563z" />
<glyph unicode="G" horiz-adv-x="1296" d="M0 823q0 367 214 592t505 225q29 0 57 -2l148 -12l135 -31l22 -315l-174 84l-145 27q-203 0 -301 -177q-78 -141 -78 -360q0 -266 100 -428q104 -169 251 -169q10 0 20 1l47 4l37 8v305q0 135 -15.5 183.5t-64.5 91.5h424v-776l-207 -56l-187 -18q-360 0 -577 233 q-211 225 -211 590z" />
<glyph unicode="H" horiz-adv-x="1558" d="M0 0q41 53 66 104q16 74 16 185v1061q0 119 -16 190q-27 59 -66 98h559q-47 -47 -63.5 -100t-16.5 -188v-353h453v353q0 135 -14 182q-18 55 -70 106h563q-47 -55 -64.5 -104t-17.5 -184v-1061q0 -125 17 -180q27 -63 65 -109h-563l70 109q14 55 14 180v452h-453v-452 q0 -135 17 -185l63 -104h-559z" />
<glyph unicode="I" horiz-adv-x="706" d="M0 0q45 57 61 104q20 61 21 185v1061q0 207 -82 288h559q-41 -43 -60.5 -104t-19.5 -184v-1061q0 -123 21 -185q14 -47 59 -104h-559z" />
<glyph unicode="J" horiz-adv-x="722" d="M-2 -516q82 160 113 272q36 131 36 287v8v1301q0 119 -20.5 184.5t-58.5 103.5h557q-49 -53 -65.5 -103t-16.5 -185v-1246q0 -281 -123 -413q-127 -141 -422 -209z" />
<glyph unicode="K" horiz-adv-x="1423" d="M0 0h563q-47 53 -63.5 103.5t-16.5 185.5v422l262 -467q94 -166 158 -205t232 -39h180v53l-516 899l430 633v53h-459l61 -86l17 -59l-12 -61l-353 -543v461q0 139 17 186l63 102h-563q82 -82 82 -288v-1061q0 -123 -21 -185z" />
<glyph unicode="L" horiz-adv-x="1001" d="M0 0v53l25 51q16 55 16 185v1061q0 143 -16 190l-25 45v53h518q-45 -47 -63 -102l-17 -186v-1074l113 -32l115 -13l141 29l145 88l-80 -348h-872z" />
<glyph unicode="M" horiz-adv-x="1867" d="M0 29q39 39 68 110q20 53 34 199l113 1069l-16 121l-47 110h432l315 -983l262 983h441q-41 -49 -60 -100l-14 -106l98 -1094q0 -184 96 -309h-514l45 98l11 115v61l-68 744l-276 -1047q-115 41 -183.5 122t-120.5 240l-227 697l-72 -832l17 -104l59 -94h-393z" />
<glyph unicode="N" horiz-adv-x="1480" d="M0 1638h424l629 -976v628q0 115 -25 199l-74 149h392q-41 -74 -60.5 -158.5t-19.5 -193.5v-1286q-311 39 -514 377l-13 18l-417 629v-676q0 -115 22 -186l68 -123h-400q66 80 86 192q12 70 13 211v861q0 201 -111 335z" />
<glyph unicode="O" d="M0 823q0 -350 201 -581q213 -242 557 -242q305 0 518 223q121 129 176 273q68 166 68 323q0 352 -203 582q-210 237 -556 237h-3q-311 0 -518 -223q-118 -127 -179 -272q-61 -152 -61 -320zM397 870q0 244 93 382.5t255 138.5q166 0 271 -179q100 -170 100 -467 q0 -205 -69 -342q-92 -176 -279 -176q-170 0 -270.5 178.5t-100.5 464.5z" />
<glyph unicode="P" horiz-adv-x="1169" d="M0 0q45 57 61 104q25 55 25 185v1061q0 133 -21.5 189t-64.5 99h629q205 0 327.5 -116.5t122.5 -321.5q0 -221 -131 -356q-123 -130 -322 -130q-17 0 -34 1l-84 4q88 59 145 153q45 102 45 228q0 137 -57 214t-162 77v-1102l21 -185l59 -104h-559z" />
<glyph unicode="Q" horiz-adv-x="1648" d="M0 823q0 -360 216 -591.5t556 -231.5h47q190 -188 311 -262q131 -76 265 -76l135 27l92 92q-172 12 -432 362q332 270 332 676q0 363 -213 592q-221 227 -549 227q-305 0 -516 -223q-121 -127 -182.5 -274.5t-61.5 -317.5zM401 870q0 244 93.5 382.5t255.5 138.5 q164 0 266 -177q104 -182 104 -469q0 -233 -95 -374.5t-253 -141.5q-170 0 -270.5 177.5t-100.5 463.5z" />
<glyph unicode="R" horiz-adv-x="1404" d="M0 12h559l-65 105q-16 47 -17 180v410l178 -414q63 -152 148 -225q78 -68 184 -68l293 33l-111 139l-329 635q137 82 188 172q63 88 64 221q0 223 -137.5 330.5t-407.5 107.5h-547q59 -51 76 -131q8 -41 8 -153v-1057q0 -133 -16 -180q-18 -55 -68 -105zM477 836v553 l12 4h21q86 0 139 -62.5t53 -177.5q0 -121 -55 -201q-61 -88 -170 -116z" />
<glyph unicode="S" horiz-adv-x="1130" d="M0 418q115 -82 238 -129q115 -43 194 -43q86 0 148.5 47t62.5 129q0 115 -225 242l-107 57q-133 76 -213 203q-75 117 -75 254q0 219 145 344q136 116 350 116h4l168 -16l176 -57v-262l-164 77l-120 29q-74 0 -130 -47q-51 -42 -52 -99q0 -6 1 -12q0 -92 234 -233 l149 -90q111 -66 170.5 -176.5t59.5 -251.5q0 -231 -154 -369q-145 -131 -381 -131l-194 20l-215 62z" />
<glyph unicode="T" horiz-adv-x="1222" d="M0 1270l82 368h1038l-73 -368l-86 67l-121 25l-49 -4l-37 -4v-1065q0 -123 20 -185l62 -104h-560q51 68 64 104q16 49 16 185v1065l-71 8l-140 -25z" />
<glyph unicode="U" horiz-adv-x="1460" d="M0 1638h547q-49 -49 -62 -98q-20 -70 -20 -182v-768q0 -162 52 -240t153 -78q106 0 159.5 76t53.5 242v768l-17 166q-18 66 -67 114h516v-51l-4 12l-27 -59q-20 -43 -20 -182v-1034q0 -123 20 -183l31 -55v-43h-420v170q-88 -113 -183.5 -163t-215.5 -50 q-154 0 -256.5 84t-137.5 231q-24 96 -24 252v13v778q0 135 -16.5 185t-61.5 95z" />
<glyph unicode="V" horiz-adv-x="1419" d="M0 1638h451l47 -208l266 -947l260 969l-18 88l-60 98h361l-484 -1638q-207 63 -303 172q-84 96 -151 320l-310 1019z" />
<glyph unicode="W" horiz-adv-x="2013" d="M0 1638h432l252 -1103l170 768l4 71v14q0 93 -70 234l-8 16h426v-39v-24q0 -88 21 -174l203 -866l184 845l4 68q-4 49 -51 156l-15 34h340l-372 -1638l-183 55l-110 76q-86 80 -140 293l-124 518l-211 -942l-158 59l-107 80q-98 98 -151 316l-217 907q-31 141 -119 276z " />
<glyph unicode="X" horiz-adv-x="1523" d="M0 0l500 856l-342 676l-76 106h489l240 -526l170 307l12 74l-16 68l-53 77h450l-438 -757l391 -760l84 -121h-487l-295 633l-183 -314l-40 -79l-13 -82l17 -72l49 -86h-459z" />
<glyph unicode="Y" horiz-adv-x="1316" d="M0 1638h487l242 -600l156 377l8 66l-12 67l-45 90h372l-377 -897v-452q0 -119 19.5 -178.5t67.5 -110.5h-562l66 109q16 55 16 180v432l-325 731z" />
<glyph unicode="Z" horiz-adv-x="1298" d="M0 0l616 1382h-16l-133 13l-182 -25l-187 -76l101 344h960l-624 -1394l301 -25q16 -1 31 -1q83 0 169 36q100 43 189 115l-109 -369h-1116z" />
<glyph unicode="a" horiz-adv-x="1521" d="M0 0h414l-54 78l-16 80l4 37l82 288h426l80 -272v-45l-12 -72l-60 -94h547v82l-29 47l-63 164l-401 1345h-500l57 -86l12 -71l-24 -111l-4 -24l-385 -1225zM500 715l145 506l146 -506h-291z" />
<glyph unicode="b" horiz-adv-x="1234" d="M0 0h575q160 0 252 37q203 82 260 319q16 68 17 144q0 326 -289 424q104 59 159.5 141t55.5 188q0 186 -139 285.5t-395 99.5h-496v-41l33 -61q16 -47 16 -186v-1061q0 -129 -16 -185l-21 -43l-12 21v-82zM451 248v530l24 4l55 9q109 0 166 -95q49 -78 49 -192 q0 -111 -59 -193q-54 -71 -148 -71h-3h-35zM451 1014v368l36 13h23q61 0 102 -52.5t41 -134.5q0 -88 -41 -145q-43 -49 -104 -49h-57z" />
<glyph unicode="c" horiz-adv-x="1310" d="M0 823q0 356 216 586.5t491 230.5q25 0 51 -2l143 -12l158 -39l26 -311l-174 80l-149 30q-190 0 -285 -167q-76 -135 -76 -342q0 -416 228 -562q92 -59 221 -59l197 31q98 35 221 104l-90 -317l-205 -56l-189 -18q-356 6 -567 227q-217 229 -217 596z" />
<glyph unicode="d" horiz-adv-x="1505" d="M0 0h625q193 0 307 41q137 47 207 129q119 113 184 285q59 162 59 360q0 387 -215 605t-596 218h-571q47 -47 64.5 -100t17.5 -188v-1061q0 -135 -16 -185zM475 264v1086l68 12h65q197 0 293 -193q72 -147 72 -366q0 -262 -96 -410q-99 -150 -248 -150q-10 0 -21 1l-69 4 z" />
<glyph unicode="e" horiz-adv-x="1067" d="M0 0l66 104q20 61 20 185v1061q0 141 -25 202q-20 49 -61 86h827v-335l-90 67l-112 25h-138v-410h267v-315q-16 41 -61.5 62.5t-88.5 21.5h-117v-494l80 -16l70 -4l199 28q68 8 157 92l-78 -360h-915z" />
<glyph unicode="f" horiz-adv-x="948" d="M0 0q45 57 61 104q20 61 21 185v1061q0 207 -82 288h831v-335l-90 67l-112 25h-146v-439h234v-315q-14 37 -64 66l-86 18h-84v-436q0 -113 9 -156q16 -70 71 -133h-563z" />
<glyph unicode="g" horiz-adv-x="1296" d="M0 823q0 367 214 592t505 225q29 0 57 -2l148 -12l135 -31l22 -315l-174 84l-145 27q-203 0 -301 -177q-78 -141 -78 -360q0 -266 100 -428q104 -169 251 -169q10 0 20 1l47 4l37 8v305q0 135 -15.5 183.5t-64.5 91.5h424v-776l-207 -56l-187 -18q-360 0 -577 233 q-211 225 -211 590z" />
<glyph unicode="h" horiz-adv-x="1558" d="M0 0q41 53 66 104q16 74 16 185v1061q0 119 -16 190q-27 59 -66 98h559q-47 -47 -63.5 -100t-16.5 -188v-353h453v353q0 135 -14 182q-18 55 -70 106h563q-47 -55 -64.5 -104t-17.5 -184v-1061q0 -125 17 -180q27 -63 65 -109h-563l70 109q14 55 14 180v452h-453v-452 q0 -135 17 -185l63 -104h-559z" />
<glyph unicode="i" horiz-adv-x="706" d="M0 0q45 57 61 104q20 61 21 185v1061q0 207 -82 288h559q-41 -43 -60.5 -104t-19.5 -184v-1061q0 -123 21 -185q14 -47 59 -104h-559z" />
<glyph unicode="j" horiz-adv-x="722" d="M-2 -516q82 160 113 272q36 131 36 287v8v1301q0 119 -20.5 184.5t-58.5 103.5h557q-49 -53 -65.5 -103t-16.5 -185v-1246q0 -281 -123 -413q-127 -141 -422 -209z" />
<glyph unicode="k" horiz-adv-x="1423" d="M0 0h563q-47 53 -63.5 103.5t-16.5 185.5v422l262 -467q94 -166 158 -205t232 -39h180v53l-516 899l430 633v53h-459l61 -86l17 -59l-12 -61l-353 -543v461q0 139 17 186l63 102h-563q82 -82 82 -288v-1061q0 -123 -21 -185z" />
<glyph unicode="l" horiz-adv-x="1001" d="M0 0v53l25 51q16 55 16 185v1061q0 143 -16 190l-25 45v53h518q-45 -47 -63 -102l-17 -186v-1074l113 -32l115 -13l141 29l145 88l-80 -348h-872z" />
<glyph unicode="m" horiz-adv-x="1767" d="M0 29q39 39 68 110q20 53 34 199l113 1069l-16 121l-47 110h432l315 -983l262 983h441q-41 -49 -60 -100l-14 -106l98 -1094q0 -184 96 -309h-514l45 98l11 115v61l-68 744l-276 -1047q-115 41 -183.5 122t-120.5 240l-227 697l-72 -832l17 -104l59 -94h-393z" />
<glyph unicode="n" horiz-adv-x="1456" d="M0 1638h424l629 -976v628q0 115 -25 199l-74 149h392q-41 -74 -60.5 -158.5t-19.5 -193.5v-1286q-311 39 -514 377l-13 18l-417 629v-676q0 -115 22 -186l68 -123h-400q66 80 86 192q12 70 13 211v861q0 201 -111 335z" />
<glyph unicode="o" d="M0 823q0 -350 201 -581q213 -242 557 -242q305 0 518 223q121 129 176 273q68 166 68 323q0 352 -203 582q-210 237 -556 237h-3q-311 0 -518 -223q-118 -127 -179 -272q-61 -152 -61 -320zM397 870q0 244 93 382.5t255 138.5q166 0 271 -179q100 -170 100 -467 q0 -205 -69 -342q-92 -176 -279 -176q-170 0 -270.5 178.5t-100.5 464.5z" />
<glyph unicode="p" horiz-adv-x="1169" d="M0 0q45 57 61 104q25 55 25 185v1061q0 133 -21.5 189t-64.5 99h629q205 0 327.5 -116.5t122.5 -321.5q0 -221 -131 -356q-123 -130 -322 -130q-17 0 -34 1l-84 4q88 59 145 153q45 102 45 228q0 137 -57 214t-162 77v-1102l21 -185l59 -104h-559z" />
<glyph unicode="q" horiz-adv-x="1648" d="M0 823q0 -360 216 -591.5t556 -231.5h47q190 -188 311 -262q131 -76 265 -76l135 27l92 92q-172 12 -432 362q332 270 332 676q0 363 -213 592q-221 227 -549 227q-305 0 -516 -223q-121 -127 -182.5 -274.5t-61.5 -317.5zM401 870q0 244 93.5 382.5t255.5 138.5 q164 0 266 -177q104 -182 104 -469q0 -233 -95 -374.5t-253 -141.5q-170 0 -270.5 177.5t-100.5 463.5z" />
<glyph unicode="r" horiz-adv-x="1404" d="M0 12h559l-65 105q-16 47 -17 180v410l178 -414q63 -152 148 -225q78 -68 184 -68l293 33l-111 139l-329 635q137 82 188 172q63 88 64 221q0 223 -137.5 330.5t-407.5 107.5h-547q59 -51 76 -131q8 -41 8 -153v-1057q0 -133 -16 -180q-18 -55 -68 -105zM477 836v553 l12 4h21q86 0 139 -62.5t53 -177.5q0 -121 -55 -201q-61 -88 -170 -116z" />
<glyph unicode="s" horiz-adv-x="1130" d="M0 418q115 -82 238 -129q115 -43 194 -43q86 0 148.5 47t62.5 129q0 115 -225 242l-107 57q-133 76 -213 203q-75 117 -75 254q0 219 145 344q136 116 350 116h4l168 -16l176 -57v-262l-164 77l-120 29q-74 0 -130 -47q-51 -42 -52 -99q0 -6 1 -12q0 -92 234 -233 l149 -90q111 -66 170.5 -176.5t59.5 -251.5q0 -231 -154 -369q-145 -131 -381 -131l-194 20l-215 62z" />
<glyph unicode="t" horiz-adv-x="1222" d="M0 1270l82 368h1038l-73 -368l-86 67l-121 25l-49 -4l-37 -4v-1065q0 -123 20 -185l62 -104h-560q51 68 64 104q16 49 16 185v1065l-71 8l-140 -25z" />
<glyph unicode="u" horiz-adv-x="1460" d="M0 1638h547q-49 -49 -62 -98q-20 -70 -20 -182v-768q0 -162 52 -240t153 -78q106 0 159.5 76t53.5 242v768l-17 166q-18 66 -67 114h516v-51l-4 12l-27 -59q-20 -43 -20 -182v-1034q0 -123 20 -183l31 -55v-43h-420v170q-88 -113 -183.5 -163t-215.5 -50 q-154 0 -256.5 84t-137.5 231q-24 96 -24 252v13v778q0 135 -16.5 185t-61.5 95z" />
<glyph unicode="v" horiz-adv-x="1419" d="M0 1638h451l47 -208l266 -947l260 969l-18 88l-60 98h361l-484 -1638q-207 63 -303 172q-84 96 -151 320l-310 1019z" />
<glyph unicode="w" horiz-adv-x="2013" d="M0 1638h432l252 -1103l170 768l4 71v14q0 93 -70 234l-8 16h426v-39v-24q0 -88 21 -174l203 -866l184 845l4 68q-4 49 -51 156l-15 34h340l-372 -1638l-183 55l-110 76q-86 80 -140 293l-124 518l-211 -942l-158 59l-107 80q-98 98 -151 316l-217 907q-31 141 -119 276z " />
<glyph unicode="x" horiz-adv-x="1523" d="M0 0l500 856l-342 676l-76 106h489l240 -526l170 307l12 74l-16 68l-53 77h450l-438 -757l391 -760l84 -121h-487l-295 633l-183 -314l-40 -79l-13 -82l17 -72l49 -86h-459z" />
<glyph unicode="y" horiz-adv-x="1316" d="M0 1638h487l242 -600l156 377l8 66l-12 67l-45 90h372l-377 -897v-452q0 -119 19.5 -178.5t67.5 -110.5h-562l66 109q16 55 16 180v432l-325 731z" />
<glyph unicode="z" horiz-adv-x="1298" d="M0 0l616 1382h-16l-133 13l-182 -25l-187 -76l101 344h960l-624 -1394l301 -25q16 -1 31 -1q83 0 169 36q100 43 189 115l-109 -369h-1116z" />
<glyph unicode="&#x2000;" horiz-adv-x="820" />
<glyph unicode="&#x2001;" />
<glyph unicode="&#x2002;" horiz-adv-x="820" />
<glyph unicode="&#x2003;" />
<glyph unicode="&#x2004;" horiz-adv-x="546" />
<glyph unicode="&#x2005;" horiz-adv-x="410" />
<glyph unicode="&#x2006;" horiz-adv-x="273" />
<glyph unicode="&#x2007;" horiz-adv-x="273" />
<glyph unicode="&#x2008;" horiz-adv-x="205" />
<glyph unicode="&#x2009;" horiz-adv-x="328" />
<glyph unicode="&#x200a;" horiz-adv-x="91" />
<glyph unicode="&#x202f;" horiz-adv-x="328" />
<glyph unicode="&#x205f;" horiz-adv-x="410" />
<glyph unicode="&#x25fc;" horiz-adv-x="1638" d="M0 0v1638h1638v-1638h-1638z" />
</font>
</defs>
</svg>
